<svg width="52" height="52" viewBox="0 0 52 52" fill="none" xmlns="http://www.w3.org/2000/svg">
<circle cx="26" cy="26" r="25" stroke="#3AE090" stroke-width="2"/>
<path d="M38.8601 40.4678V37.2527C38.8601 35.5474 38.1826 33.9118 36.9767 32.706C35.7709 31.5001 34.1353 30.8226 32.43 30.8226H19.5698C17.8644 30.8226 16.2289 31.5001 15.023 32.706C13.8171 33.9118 13.1396 35.5474 13.1396 37.2527V40.4678" stroke="#3AE090" stroke-width="2" stroke-linecap="round" stroke-linejoin="round"/>
<path d="M25.9999 24.3925C29.5512 24.3925 32.43 21.5137 32.43 17.9624C32.43 14.4111 29.5512 11.5323 25.9999 11.5323C22.4487 11.5323 19.5698 14.4111 19.5698 17.9624C19.5698 21.5137 22.4487 24.3925 25.9999 24.3925Z" stroke="#3AE090" stroke-width="2" stroke-linecap="round" stroke-linejoin="round"/>
</svg>
