<svg width="1462" height="1525" viewBox="0 0 1462 1525" fill="none" xmlns="http://www.w3.org/2000/svg">
<g opacity="0.6">
<g opacity="0.5">
<mask id="path-1-inside-1_822_12963" fill="white">
<path d="M74 184H128V238H74V184Z"/>
</mask>
<path d="M74 184V179H69V184H74ZM74 189H128V179H74V189ZM79 238V184H69V238H79Z" fill="#1295D1" mask="url(#path-1-inside-1_822_12963)"/>
<mask id="path-3-inside-2_822_12963" fill="white">
<path d="M128 238H74V184H128V238Z"/>
</mask>
<path d="M128 238V243H133V238H128ZM128 233H74V243H128V233ZM123 184V238H133V184H123Z" fill="#86CBB1" mask="url(#path-3-inside-2_822_12963)"/>
</g>
<mask id="path-5-inside-3_822_12963" fill="white">
<path d="M304 650H338V684H304V650Z"/>
</mask>
<path d="M304 650V645H299V650H304ZM304 655H338V645H304V655ZM309 684V650H299V684H309Z" fill="#1295D1" mask="url(#path-5-inside-3_822_12963)"/>
<mask id="path-7-inside-4_822_12963" fill="white">
<path d="M338 684H304V650H338V684Z"/>
</mask>
<path d="M338 684V689H343V684H338ZM338 679H304V689H338V679ZM333 650V684H343V650H333Z" fill="#86CBB1" mask="url(#path-7-inside-4_822_12963)"/>
<mask id="path-9-inside-5_822_12963" fill="white">
<path d="M1124 1211H1090V1245H1124V1211Z"/>
</mask>
<path d="M1124 1211V1206H1129V1211H1124ZM1124 1216H1090V1206H1124V1216ZM1119 1245V1211H1129V1245H1119Z" fill="#1295D1" mask="url(#path-9-inside-5_822_12963)"/>
<mask id="path-11-inside-6_822_12963" fill="white">
<path d="M1090 1245H1124V1211H1090V1245Z"/>
</mask>
<path d="M1090 1245V1250H1085V1245H1090ZM1090 1240H1124V1250H1090V1240ZM1095 1211V1245H1085V1211H1095Z" fill="#86CBB1" mask="url(#path-11-inside-6_822_12963)"/>
<mask id="path-13-inside-7_822_12963" fill="white">
<path d="M511 60H545V94H511V60Z"/>
</mask>
<path d="M511 60V55H506V60H511ZM511 65H545V55H511V65ZM516 94V60H506V94H516Z" fill="#1295D1" mask="url(#path-13-inside-7_822_12963)"/>
<mask id="path-15-inside-8_822_12963" fill="white">
<path d="M545 94H511V60L545 60V94Z"/>
</mask>
<path d="M545 94V99H550V94H545ZM545 89H511V99H545V89ZM540 60V94H550V60H540Z" fill="#86CBB1" mask="url(#path-15-inside-8_822_12963)"/>
<mask id="path-17-inside-9_822_12963" fill="white">
<path d="M919 739H985V805H919V739Z"/>
</mask>
<path d="M919 739V734H914V739H919ZM919 744H985V734H919V744ZM924 805V739H914V805H924Z" fill="#1295D1" mask="url(#path-17-inside-9_822_12963)"/>
<mask id="path-19-inside-10_822_12963" fill="white">
<path d="M985 805H919V739H985V805Z"/>
</mask>
<path d="M985 805V810H990V805H985ZM985 800H919V810H985V800ZM980 739V805H990V739H980Z" fill="#86CBB1" mask="url(#path-19-inside-10_822_12963)"/>
<mask id="path-21-inside-11_822_12963" fill="white">
<path d="M644 465H578V531H644V465Z"/>
</mask>
<path d="M644 465V460H649V465H644ZM644 470H578V460H644V470ZM639 531V465H649V531H639Z" fill="#1295D1" mask="url(#path-21-inside-11_822_12963)"/>
<mask id="path-23-inside-12_822_12963" fill="white">
<path d="M578 531H644V465H578V531Z"/>
</mask>
<path d="M578 531V536H573V531H578ZM578 526H644V536H578V526ZM583 465V531H573V465H583Z" fill="#86CBB1" mask="url(#path-23-inside-12_822_12963)"/>
<mask id="path-25-inside-13_822_12963" fill="white">
<path d="M841 1111H775V1177H841V1111Z"/>
</mask>
<path d="M841 1111V1106H846V1111H841ZM841 1116H775V1106H841V1116ZM836 1177V1111H846V1177H836Z" fill="#1295D1" mask="url(#path-25-inside-13_822_12963)"/>
<mask id="path-27-inside-14_822_12963" fill="white">
<path d="M775 1177H841V1111H775V1177Z"/>
</mask>
<path d="M775 1177V1182H770V1177H775ZM775 1172H841V1182H775V1172ZM780 1111V1177H770V1111H780Z" fill="#86CBB1" mask="url(#path-27-inside-14_822_12963)"/>
<mask id="path-29-inside-15_822_12963" fill="white">
<path d="M1352 266H1418V332H1352V266Z"/>
</mask>
<path d="M1352 266V261H1347V266H1352ZM1352 271H1418V261H1352V271ZM1357 332V266H1347V332H1357Z" fill="#1295D1" mask="url(#path-29-inside-15_822_12963)"/>
<mask id="path-31-inside-16_822_12963" fill="white">
<path d="M1418 332H1352V266H1418V332Z"/>
</mask>
<path d="M1418 332V337H1423V332H1418ZM1418 327H1352V337H1418V327ZM1413 266V332H1423V266H1413Z" fill="#86CBB1" mask="url(#path-31-inside-16_822_12963)"/>
<g opacity="0.5">
<mask id="path-33-inside-17_822_12963" fill="white">
<path d="M1123 571H1261V709H1123V571Z"/>
</mask>
<path d="M1123 571V566H1118V571H1123ZM1123 576H1261V566H1123V576ZM1128 709V571H1118V709H1128Z" fill="#1295D1" mask="url(#path-33-inside-17_822_12963)"/>
<mask id="path-35-inside-18_822_12963" fill="white">
<path d="M1261 709H1123V571H1261V709Z"/>
</mask>
<path d="M1261 709V714H1266V709H1261ZM1261 704H1123V714H1261V704ZM1256 571V709H1266V571H1256Z" fill="#86CBB1" mask="url(#path-35-inside-18_822_12963)"/>
</g>
<mask id="path-37-inside-19_822_12963" fill="white">
<path d="M305 1132H167V1270H305V1132Z"/>
</mask>
<path d="M305 1132V1127H310V1132H305ZM305 1137H167V1127H305V1137ZM300 1270V1132H310V1270H300Z" fill="#1295D1" mask="url(#path-37-inside-19_822_12963)"/>
<mask id="path-39-inside-20_822_12963" fill="white">
<path d="M167 1270H305V1132H167L167 1270Z"/>
</mask>
<path d="M167 1270V1275H162V1270H167ZM167 1265H305V1275H167V1265ZM172 1132L172 1270H162L162 1132H172Z" fill="#86CBB1" mask="url(#path-39-inside-20_822_12963)"/>
<g opacity="0.5">
<mask id="path-41-inside-21_822_12963" fill="white">
<path d="M802 1339H664V1477H802V1339Z"/>
</mask>
<path d="M802 1339V1334H807V1339H802ZM802 1344H664V1334H802V1344ZM797 1477V1339H807V1477H797Z" fill="#1295D1" mask="url(#path-41-inside-21_822_12963)"/>
<mask id="path-43-inside-22_822_12963" fill="white">
<path d="M664 1477H802V1339H664V1477Z"/>
</mask>
<path d="M664 1477V1482H659V1477H664ZM664 1472H802V1482H664V1472ZM669 1339V1477H659V1339H669Z" fill="#86CBB1" mask="url(#path-43-inside-22_822_12963)"/>
</g>
<g opacity="0.5">
<mask id="path-45-inside-23_822_12963" fill="white">
<path d="M1107 73H969V211H1107V73Z"/>
</mask>
<path d="M1107 73V68H1112V73H1107ZM1107 78H969V68H1107V78ZM1102 211V73H1112V211H1102Z" fill="#1295D1" mask="url(#path-45-inside-23_822_12963)"/>
<mask id="path-47-inside-24_822_12963" fill="white">
<path d="M969 211L1107 211V73L969 73V211Z"/>
</mask>
<path d="M969 211V216H964V211H969ZM969 206L1107 206V216L969 216V206ZM974 73V211H964V73H974Z" fill="#86CBB1" mask="url(#path-47-inside-24_822_12963)"/>
</g>
<g opacity="0.5">
<mask id="path-49-inside-25_822_12963" fill="white">
<path d="M1352 724H1382V754H1352V724Z"/>
</mask>
<path d="M1352 724V719H1347V724H1352ZM1352 729H1382V719H1352V729ZM1357 754V724H1347V754H1357Z" fill="#1295D1" mask="url(#path-49-inside-25_822_12963)"/>
<mask id="path-51-inside-26_822_12963" fill="white">
<path d="M1382 754H1352V724H1382V754Z"/>
</mask>
<path d="M1382 754V759H1387V754H1382ZM1382 749H1352V759H1382V749ZM1377 724V754H1387V724H1377Z" fill="#86CBB1" mask="url(#path-51-inside-26_822_12963)"/>
</g>
<g opacity="0.5">
<mask id="path-53-inside-27_822_12963" fill="white">
<path d="M76 1285H46V1315H76V1285Z"/>
</mask>
<path d="M76 1285V1280H81V1285H76ZM76 1290H46V1280H76V1290ZM71 1315V1285H81V1315H71Z" fill="#1295D1" mask="url(#path-53-inside-27_822_12963)"/>
<mask id="path-55-inside-28_822_12963" fill="white">
<path d="M46 1315H76V1285H46L46 1315Z"/>
</mask>
<path d="M46 1315V1320H41V1315H46ZM46 1310H76V1320H46V1310ZM51 1285V1315H41V1285H51Z" fill="#86CBB1" mask="url(#path-55-inside-28_822_12963)"/>
</g>
<g opacity="0.5">
<mask id="path-57-inside-29_822_12963" fill="white">
<path d="M907 327H877V357H907V327Z"/>
</mask>
<path d="M907 327V322H912V327H907ZM907 332H877V322H907V332ZM902 357V327H912V357H902Z" fill="#1295D1" mask="url(#path-57-inside-29_822_12963)"/>
<mask id="path-59-inside-30_822_12963" fill="white">
<path d="M877 357H907V327H877V357Z"/>
</mask>
<path d="M877 357V362H872V357H877ZM877 352H907V362H877V352ZM882 327V357H872V327H882Z" fill="#86CBB1" mask="url(#path-59-inside-30_822_12963)"/>
</g>
<g opacity="0.5">
<mask id="path-61-inside-31_822_12963" fill="white">
<path d="M524 1132H494V1162H524V1132Z"/>
</mask>
<path d="M524 1132V1127H529V1132H524ZM524 1137H494V1127H524V1137ZM519 1162V1132H529V1162H519Z" fill="#1295D1" mask="url(#path-61-inside-31_822_12963)"/>
<mask id="path-63-inside-32_822_12963" fill="white">
<path d="M494 1162H524V1132H494V1162Z"/>
</mask>
<path d="M494 1162V1167H489V1162H494ZM494 1157H524V1167H494V1157ZM499 1132V1162H489V1132H499Z" fill="#86CBB1" mask="url(#path-63-inside-32_822_12963)"/>
</g>
<g opacity="0.5">
<mask id="path-65-inside-33_822_12963" fill="white">
<path d="M46 667H150V771H46V667Z"/>
</mask>
<path d="M46 667V662H41V667H46ZM46 672H150V662H46V672ZM51 771V667H41V771H51Z" fill="#1295D1" mask="url(#path-65-inside-33_822_12963)"/>
<mask id="path-67-inside-34_822_12963" fill="white">
<path d="M150 771H46L46 667H150V771Z"/>
</mask>
<path d="M150 771V776H155V771H150ZM150 766H46V776H150V766ZM145 667V771H155V667H145Z" fill="#86CBB1" mask="url(#path-67-inside-34_822_12963)"/>
</g>
<g opacity="0.5">
<mask id="path-69-inside-35_822_12963" fill="white">
<path d="M1382 1228H1278V1332H1382V1228Z"/>
</mask>
<path d="M1382 1228V1223H1387V1228H1382ZM1382 1233H1278V1223H1382V1233ZM1377 1332V1228H1387V1332H1377Z" fill="#1295D1" mask="url(#path-69-inside-35_822_12963)"/>
<mask id="path-71-inside-36_822_12963" fill="white">
<path d="M1278 1332H1382V1228H1278V1332Z"/>
</mask>
<path d="M1278 1332V1337H1273V1332H1278ZM1278 1327H1382V1337H1278V1327ZM1283 1228V1332H1273V1228H1283Z" fill="#86CBB1" mask="url(#path-71-inside-36_822_12963)"/>
</g>
<g opacity="0.5">
<mask id="path-73-inside-37_822_12963" fill="white">
<path d="M408 238H304V342H408V238Z"/>
</mask>
<path d="M408 238V233H413V238H408ZM408 243H304V233H408V243ZM403 342V238H413V342H403Z" fill="#1295D1" mask="url(#path-73-inside-37_822_12963)"/>
<mask id="path-75-inside-38_822_12963" fill="white">
<path d="M304 342H408V238H304V342Z"/>
</mask>
<path d="M304 342V347H299V342H304ZM304 337H408V347H304V337ZM309 238V342H299V238H309Z" fill="#86CBB1" mask="url(#path-75-inside-38_822_12963)"/>
</g>
<g opacity="0.5">
<mask id="path-77-inside-39_822_12963" fill="white">
<path d="M482 800H504V778H482V800Z"/>
</mask>
<path d="M482 800V805H477V800H482ZM482 795H504V805H482V795ZM487 778V800H477V778H487Z" fill="#1295D1" mask="url(#path-77-inside-39_822_12963)"/>
<mask id="path-79-inside-40_822_12963" fill="white">
<path d="M504 778H482V800H504V778Z"/>
</mask>
<path d="M504 778V773H509V778H504ZM504 783H482V773H504V783ZM499 800V778H509V800H499Z" fill="#86CBB1" mask="url(#path-79-inside-40_822_12963)"/>
</g>
<g opacity="0.5">
<mask id="path-81-inside-41_822_12963" fill="white">
<path d="M1278 498H1300V476H1278V498Z"/>
</mask>
<path d="M1278 498V503H1273V498H1278ZM1278 493H1300V503H1278V493ZM1283 476V498H1273V476H1283Z" fill="#1295D1" mask="url(#path-81-inside-41_822_12963)"/>
<mask id="path-83-inside-42_822_12963" fill="white">
<path d="M1300 476H1278V498H1300V476Z"/>
</mask>
<path d="M1300 476V471H1305V476H1300ZM1300 481H1278V471H1300V481ZM1295 498V476H1305V498H1295Z" fill="#86CBB1" mask="url(#path-83-inside-42_822_12963)"/>
</g>
<g opacity="0.5">
<mask id="path-85-inside-43_822_12963" fill="white">
<path d="M946 1361H924V1339H946V1361Z"/>
</mask>
<path d="M946 1361V1366H951V1361H946ZM946 1356H924V1366H946V1356ZM941 1339V1361H951V1339H941Z" fill="#1295D1" mask="url(#path-85-inside-43_822_12963)"/>
<mask id="path-87-inside-44_822_12963" fill="white">
<path d="M924 1339H946V1361H924V1339Z"/>
</mask>
<path d="M924 1339V1334H919V1339H924ZM924 1344H946V1334H924V1344ZM929 1361V1339H919V1361H929Z" fill="#86CBB1" mask="url(#path-87-inside-44_822_12963)"/>
</g>
</g>
</svg>
